<?xml version="1.0" encoding="UTF-8"?>
<svg width="831px" height="775px" viewBox="0 0 831 775" version="1.1" xmlns="http://www.w3.org/2000/svg" xmlns:xlink="http://www.w3.org/1999/xlink">
    <!-- Generator: Sketch 57.1 (83088) - https://sketch.com -->
    <title>El-logo-blue</title>
    <desc>Created with Sketch.</desc>
    <g id="Page-1" stroke="none" stroke-width="1" fill="none" fill-rule="evenodd">
        <g id="El-logo-blue" fill-rule="nonzero">
            <path d="M227.7,160.1 C227.7,155.8 229,151.8 231.3,148.5 C232.4,146.8 233.8,145.3 235.3,144.1 C238.9,141.1 243.5,139.3 248.5,139.3 L582.7,139.3 C587,139.3 591,140.6 594.3,142.9 C596.5,144.4 598.4,146.3 599.9,148.5 C602.1,151.8 603.5,155.8 603.5,160.1 L603.5,394.9 L830.8,257.3 L446.5,10.2 C427.4,-2.1 402.9,-2.1 383.8,10.2 L0.3,257.2 L227.6,394.8 L227.6,160.1 L227.7,160.1 Z" id="Path" fill="#154DAE"></path>
            <path d="M599.9,148.5 C598.4,146.3 596.5,144.4 594.3,142.9 C591,140.7 587,139.3 582.7,139.3 L248.5,139.3 C243.5,139.3 238.9,141.1 235.3,144.1 C233.8,145.4 232.4,146.9 231.3,148.5 C229.1,151.8 227.7,155.8 227.7,160.1 L227.7,394.8 L283.2,428.4 L329.1,456.2 L382.3,488.4 C402.8,500.8 428.4,500.8 448.8,488.4 L503.7,455.7 L549.5,427.5 L603.4,394.9 L603.4,160.1 C603.5,155.8 602.2,151.8 599.9,148.5 Z M368.5,182.9 L462.7,182.9 C469.5,182.9 475,188.4 475,195.2 C475,202 469.5,207.5 462.7,207.5 L368.5,207.5 C361.7,207.5 356.2,202 356.2,195.2 C356.2,188.4 361.7,182.9 368.5,182.9 Z M495.6,384.8 L335.6,384.8 C328.8,384.8 323.3,379.3 323.3,372.5 C323.3,365.7 328.8,360.2 335.6,360.2 L495.6,360.2 C502.4,360.2 507.9,365.7 507.9,372.5 C507.9,379.3 502.4,384.8 495.6,384.8 Z M342.1,313.4 C342.1,306.6 347.6,301.1 354.4,301.1 L476.6,301.1 C483.4,301.1 488.9,306.6 488.9,313.4 C488.9,320.2 483.4,325.7 476.6,325.7 L354.5,325.7 C347.7,325.7 342.1,320.2 342.1,313.4 Z M515.5,266.6 L315.7,266.6 C308.9,266.6 303.4,261.1 303.4,254.3 C303.4,247.5 308.9,242 315.7,242 L515.5,242 C522.3,242 527.8,247.5 527.8,254.3 C527.8,261.1 522.3,266.6 515.5,266.6 Z" id="Shape" fill="#F2F2F2"></path>
            <polygon id="Path" fill="#154DAE" points="101.1 694.3 329.1 456.2 283.2 428.4"></polygon>
            <polygon id="Path" fill="#154DAE" points="732.3 694.3 549.6 427.5 503.8 455.7"></polygon>
            <path d="M830.8,736.5 L830.8,257.2 L830.8,257.2 L603.5,394.8 L549.6,427.4 L732.4,694.2 L503.8,455.7 L448.9,488.4 C428.4,500.8 402.8,500.8 382.4,488.4 L329.2,456.2 L101.1,694.3 L283.2,428.4 L227.7,394.8 L0.4,257.2 L0.4,707.7 L0.4,736.5 C0.4,757.8 17.7,775 38.9,775 L792.3,775 C813.6,775 830.8,757.8 830.8,736.5 Z" id="Path" fill="#1B5ED7"></path>
            <path d="M368.5,207.6 L462.7,207.6 C469.5,207.6 475,202.1 475,195.3 C475,188.5 469.5,183 462.7,183 L368.5,183 C361.7,183 356.2,188.5 356.2,195.3 C356.2,202.1 361.7,207.6 368.5,207.6 Z" id="Path" fill="#154DAE"></path>
            <path d="M515.5,242 L315.7,242 C308.9,242 303.4,247.5 303.4,254.3 C303.4,261.1 308.9,266.6 315.7,266.6 L515.5,266.6 C522.3,266.6 527.8,261.1 527.8,254.3 C527.8,247.5 522.3,242 515.5,242 Z" id="Path" fill="#154DAE"></path>
            <path d="M476.7,325.7 C483.5,325.7 489,320.2 489,313.4 C489,306.6 483.5,301.1 476.7,301.1 L354.5,301.1 C347.7,301.1 342.2,306.6 342.2,313.4 C342.2,320.2 347.7,325.7 354.5,325.7 L476.7,325.7 Z" id="Path" fill="#154DAE"></path>
            <path d="M495.6,360.1 L335.6,360.1 C328.8,360.1 323.3,365.6 323.3,372.4 C323.3,379.2 328.8,384.7 335.6,384.7 L495.6,384.7 C502.4,384.7 507.9,379.2 507.9,372.4 C507.9,365.6 502.4,360.1 495.6,360.1 Z" id="Path" fill="#154DAE"></path>
        </g>
    </g>
</svg>