<svg width="512" height="512" viewBox="0 0 512 512" fill="none" xmlns="http://www.w3.org/2000/svg">
<path d="M390.628 457.372L189.256 255.999L390.628 54.6263C396.569 48.6128 399.889 40.4928 399.863 32.0396C399.837 23.5863 396.468 15.4867 390.491 9.5093C384.513 3.53193 376.414 0.162527 367.96 0.136866C359.507 0.111206 351.387 3.43138 345.374 9.37235L121.374 233.372C115.373 239.373 112.001 247.513 112.001 255.999C112.001 264.486 115.373 272.625 121.374 278.626L345.374 502.626C351.387 508.567 359.507 511.888 367.96 511.862C376.414 511.836 384.513 508.467 390.491 502.489C396.468 496.512 399.837 488.412 399.863 479.959C399.889 471.506 396.569 463.386 390.628 457.372Z" fill="white"/>
</svg>